<svg width="22" height="22" viewBox="0 0 22 22" fill="none" xmlns="http://www.w3.org/2000/svg">
<path d="M8.44661 14.3975C8.11385 14.1508 7.64413 14.2206 7.39748 14.5534C7.15082 14.8862 7.22062 15.3559 7.55339 15.6025C8.5258 16.3233 9.71503 16.75 11 16.75C12.285 16.75 13.4742 16.3233 14.4466 15.6025C14.7794 15.3559 14.8492 14.8862 14.6025 14.5534C14.3559 14.2206 13.8862 14.1508 13.5534 14.3975C12.825 14.9373 11.9459 15.25 11 15.25C10.0541 15.25 9.17495 14.9373 8.44661 14.3975Z" fill="#1C274C"/>
<path fill-rule="evenodd" clip-rule="evenodd" d="M11 0.25C10.2919 0.25 9.64853 0.45282 8.95055 0.79224C8.27585 1.12035 7.49642 1.60409 6.52286 2.20832L4.45628 3.4909C3.53509 4.06261 2.79744 4.5204 2.2289 4.95581C1.64015 5.40669 1.18795 5.86589 0.86131 6.46263C0.535355 7.05812 0.388567 7.69174 0.31819 8.4407C0.249986 9.16654 0.249992 10.0541 0.25 11.1672V12.7799C0.249986 14.6837 0.249975 16.1866 0.402703 17.3616C0.559372 18.567 0.888563 19.5401 1.63236 20.3094C2.37958 21.0824 3.33046 21.4277 4.50761 21.5914C5.64849 21.75 7.10556 21.75 8.94185 21.75H13.0581C14.8944 21.75 16.3515 21.75 17.4924 21.5914C18.6695 21.4277 19.6204 21.0824 20.3676 20.3094C21.1114 19.5401 21.4406 18.567 21.5973 17.3616C21.75 16.1866 21.75 14.6838 21.75 12.7799V11.1672C21.75 10.0541 21.75 9.16652 21.6818 8.4407C21.6114 7.69174 21.4646 7.05812 21.1387 6.46263C20.8121 5.86589 20.3599 5.40669 19.7711 4.95581C19.2026 4.5204 18.4649 4.06262 17.5437 3.49091L15.4771 2.20831C14.5036 1.60409 13.7241 1.12034 13.0494 0.79224C12.3515 0.452819 11.7081 0.25 11 0.25ZM7.27953 3.50412C8.29529 2.87371 9.0095 2.43153 9.60654 2.1412C10.1882 1.85833 10.6002 1.75 11 1.75C11.3998 1.75 11.8118 1.85833 12.3935 2.14119C12.9905 2.43153 13.7047 2.87371 14.7205 3.50412L16.7205 4.74537C17.6813 5.34169 18.3559 5.76135 18.8591 6.1467C19.3487 6.52164 19.6303 6.83106 19.8229 7.18285C20.0162 7.53589 20.129 7.94865 20.1884 8.58104C20.2492 9.22859 20.25 10.0458 20.25 11.2039V12.725C20.25 14.6959 20.2485 16.1012 20.1098 17.1683C19.9736 18.2163 19.717 18.8244 19.2892 19.2669C18.8649 19.7058 18.2871 19.9664 17.2858 20.1057C16.2602 20.2483 14.9075 20.25 13 20.25H9C7.09247 20.25 5.73983 20.2483 4.71422 20.1057C3.71286 19.9664 3.13514 19.7058 2.71079 19.2669C2.28301 18.8244 2.02642 18.2163 1.89019 17.1683C1.75149 16.1012 1.75 14.6959 1.75 12.725V11.2039C1.75 10.0458 1.75076 9.22859 1.81161 8.58104C1.87103 7.94865 1.98385 7.53589 2.17709 7.18285C2.36965 6.83106 2.65133 6.52164 3.14092 6.1467C3.6441 5.76135 4.31869 5.34169 5.27953 4.74537L7.27953 3.50412Z" fill="#1C274C"/>
</svg>
